PathFileType	4	(X/Y/Z)	D:\TRACE\v60_Jaco2_6-2-23\JustBodyDRS_Motion2_1-v60.trc
DataRate	CameraRate	NumFrames	NumMarkers	Units	OrigDataRate	OrigDataStartFrame	OrigNumFrames
100.00	100.00	      31	9	mm	100.00	1753	      7009
Frame#	Time	front left toe			Front right toe			aft left toe			aft right toe			Arm			FL body			FR body			AL Body			AR Body			
		X1	Y1	Z1	X2	Y2	Z2	X3	Y3	Z3	X4	Y4	Z4	X5	Y5	Z5	X6	Y6	Z6	X7	Y7	Z7	X8	Y8	Z8	X9	Y9	Z9	

1753	17.520	-251.09402	102.15611	-316.65738	168.38365	3.59421	-343.00058	-152.84814	21.59648	320.59595	163.33488	95.61624	284.78690	-170.76550	1207.13623	-439.09412	-135.40483	576.05438	-450.53601	24.37404	578.40771	-463.22546	-59.28017	553.17389	492.30933	96.30785	549.03088	480.28964	
1754	17.530	-251.93588	93.89201	-319.39447	167.82143	2.99670	-342.98029	-153.98831	22.16942	320.29413	161.34026	87.29552	282.62598	-171.63397	1206.42102	-441.02167	-136.66667	575.05615	-451.82657	23.53853	577.32806	-464.26160	-61.52800	553.79492	491.24863	94.20871	549.33954	479.66714	
1755	17.540	-253.13329	85.38508	-322.35068	167.25237	2.42406	-343.09689	-154.75452	22.45194	319.99521	158.28682	78.66695	280.67975	-171.77969	1205.71631	-443.34995	-137.44621	574.03986	-452.68210	22.08394	576.22003	-465.31873	-63.71916	553.90631	490.52603	91.79089	549.69067	478.72852	
1756	17.550	-254.48848	77.05425	-324.60437	166.61021	1.72063	-343.17194	-155.33693	22.92603	319.54163	155.55267	69.91721	279.16711	-171.95772	1205.27185	-445.36639	-138.78423	573.32941	-453.92126	20.59907	575.37299	-466.59027	-66.20678	555.05640	489.25186	90.12495	550.67828	477.75574	
1757	17.560	-256.21982	68.55655	-326.27151	165.84544	0.92368	-343.61490	-156.08292	23.68799	318.94424	152.97273	61.25259	277.90448	-172.30099	1204.63831	-447.84900	-139.39763	572.59259	-455.21475	19.84124	574.38593	-467.26129	-68.47927	555.98657	487.80286	87.58263	551.35266	476.73538	
1758	17.570	-258.44449	60.22844	-327.56653	165.41673	0.44502	-343.84909	-156.86563	24.15556	318.64478	150.63943	53.50225	276.40057	-172.87930	1203.91370	-450.24954	-141.17366	572.05823	-456.95020	18.79173	573.61902	-468.50137	-70.78473	556.35742	486.68341	85.06210	551.60846	475.55075	
1759	17.580	-260.46426	51.96078	-328.46033	165.06570	-0.11224	-344.05212	-157.87621	24.91153	318.23929	148.73747	45.87577	275.35455	-174.03348	1203.06165	-452.52859	-142.02556	570.94135	-458.07370	17.58876	572.42926	-469.66977	-73.56929	556.61145	485.27835	83.07244	551.66235	474.65286	
1760	17.590	-262.86777	44.38091	-329.13623	164.82104	-0.74678	-344.08640	-157.64937	24.57012	318.22842	146.86092	39.20555	274.50565	-174.02101	1201.98450	-455.52783	-143.14626	570.00146	-459.64047	16.27368	571.57141	-471.32071	-75.96649	557.21381	483.82501	80.38776	552.05121	473.57306	
1761	17.600	-265.44128	37.67904	-330.35068	164.37572	-1.43313	-344.34167	-157.91418	24.76497	317.97318	143.96072	32.87050	273.56970	-174.99371	1201.08582	-457.97125	-143.96609	569.17969	-461.03757	15.39493	570.51306	-472.40265	-78.10216	557.21570	482.46451	77.93916	552.39606	472.16867	
1762	17.610	-267.26221	31.08851	-331.69940	164.08752	-1.86705	-344.51761	-157.79903	24.88227	317.67618	142.92776	31.69631	270.73495	-175.82210	1200.64734	-460.69513	-145.19554	568.33380	-462.80347	14.09871	569.64539	-474.15573	-80.62038	558.14594	480.83615	75.74562	552.70184	471.20477	
1763	17.620	-269.87042	24.35271	-333.37146	163.69098	-2.27430	-344.82220	-158.65254	25.86790	317.04443	142.94827	29.69686	269.62189	-176.52727	1200.07202	-463.42459	-146.47307	567.46118	-464.67377	12.99018	568.82813	-475.51849	-83.15429	559.46973	478.99014	72.92882	554.08594	469.23856	
1764	17.630	-271.70969	17.10508	-335.25174	163.44217	-2.63460	-344.63174	-159.09209	26.47855	316.73849	143.42505	31.28729	269.59143	-177.37903	1199.33826	-466.15570	-147.62796	566.08582	-466.60574	12.36207	567.75525	-477.41501	-86.40582	561.13434	477.40137	70.21013	556.45917	467.81360	
1765	17.640	-272.20731	9.41562	-336.49765	163.23151	-3.19539	-344.97943	-159.24077	26.84017	316.56915	142.82697	32.16594	269.79742	-178.66908	1198.51221	-469.94424	-149.39752	564.75360	-468.82828	11.21046	566.39557	-478.97125	-88.88438	563.39954	475.63062	67.39436	558.64465	466.48093	
1766	17.650	-272.65237	-1.42044	-337.32446	163.01398	-3.67536	-345.11810	-159.54526	27.26260	316.23663	142.38864	33.19054	270.06366	-180.61143	1197.48425	-474.73993	-150.39372	563.59534	-470.54126	9.50845	565.21503	-480.43021	-91.71416	564.90802	473.75491	64.34669	560.05267	464.38428	
1767	17.660	-275.12216	-5.67454	-340.12469	162.88853	-4.24801	-345.18063	-159.66589	27.71216	315.64200	142.43817	33.66619	269.97318	-183.50716	1195.85352	-479.76788	-151.27007	563.93097	-472.37949	8.61305	564.86816	-482.12726	-93.94499	566.10925	471.93112	62.22593	560.85590	463.17282	
1768	17.670	-276.14444	-4.76967	-338.85016	161.53255	-3.78734	-346.58923	-160.45833	28.96186	315.05237	142.22446	34.04590	269.35193	-186.59953	1194.40002	-484.12216	-152.11057	565.60431	-474.20044	7.80421	565.67963	-483.50317	-96.40458	567.14972	470.53171	59.73831	561.72107	461.86905	
1769	17.680	-274.75864	-6.11680	-339.49796	156.88156	-1.23783	-343.83508	-160.97838	33.07851	314.77185	141.46935	33.40641	267.91507	-187.79823	1193.62488	-487.12857	-153.16608	566.19116	-476.06006	7.27967	567.00323	-485.42093	-98.81572	567.97345	468.75226	57.13087	563.04712	460.29245	
1770	17.690	-274.60852	-5.93278	-340.82144	151.81987	3.60140	-340.25302	-159.29236	36.87144	316.94656	141.32990	34.02018	267.52271	-187.03700	1194.79016	-488.53885	-153.98846	565.65906	-477.67462	6.58743	567.01776	-486.81668	-101.65506	569.74390	466.86252	54.63176	565.11292	458.71317	
1771	17.700	-274.54419	-6.86534	-339.96991	148.22661	12.88223	-338.47165	-157.42972	47.93243	316.75330	141.44945	34.71541	267.77518	-185.94138	1197.40820	-489.69119	-154.31825	564.50928	-479.15182	4.80154	566.22162	-488.29645	-104.02469	571.53979	465.17175	52.19954	567.01068	457.20770	
1772	17.710	-274.76285	-7.37296	-340.87592	146.40723	23.25416	-338.08307	-156.77286	58.69468	316.94781	141.14426	34.97604	267.19733	-185.51094	1199.19922	-490.90927	-156.29655	563.85803	-481.06430	3.66027	564.98340	-489.33606	-106.43221	573.70581	464.08340	50.30449	568.42664	455.66080	
1773	17.720	-274.52380	-8.18698	-340.56647	146.01601	35.90657	-339.26239	-159.60226	72.85523	314.85168	141.63229	35.24136	267.38806	-186.22418	1198.33923	-493.34595	-156.60017	562.53656	-481.65363	3.06277	564.36127	-490.77493	-108.09518	574.61316	463.14871	48.67085	569.66284	457.07214	
1774	17.730	-274.35406	-8.61098	-340.88589	145.33727	49.41185	-341.79761	-164.88116	85.35573	312.81479	142.12422	35.41812	266.80692	-188.25209	1196.04150	-495.82498	-158.67096	562.24506	-482.69617	2.69373	563.91827	-491.43747	-108.66798	574.66003	462.02048	47.46621	570.37708	456.28168	
1775	17.740	-273.73822	-9.45037	-340.88947	144.10367	63.22950	-344.60889	-172.72282	99.07381	309.09634	142.41924	35.74541	266.63986	-190.76929	1193.68335	-499.04269	-159.44099	561.76031	-483.25070	0.48882	563.05591	-492.29199	-109.25034	575.29272	461.29013	46.29222	570.67224	454.69604	
1776	17.750	-273.78796	-9.95288	-340.81570	142.13272	76.50946	-347.28253	-180.51559	112.10783	305.08667	142.49745	35.96998	266.49283	-192.56187	1191.60352	-501.82895	-160.44841	560.83929	-483.72601	-0.52941	561.95135	-492.75037	-109.69616	575.55536	460.59677	44.43723	571.21252	453.79062	
1777	17.760	-273.45984	-10.78716	-341.07596	139.02155	88.78515	-349.75491	-187.76816	125.19047	301.67395	142.90083	36.30746	266.15842	-194.14325	1190.15295	-503.81363	-162.41585	559.72949	-484.82742	-1.65015	560.54694	-493.34375	-111.00963	576.66315	460.04480	46.47670	571.83429	455.67468	
1778	17.770	-273.30804	-11.41275	-341.24872	135.38739	100.28323	-352.16867	-192.94156	137.32510	299.06931	143.39316	36.70011	265.81665	-195.53143	1189.53577	-505.07156	-162.45963	557.78674	-484.83783	-3.23701	559.37823	-493.73175	-111.99442	577.30518	459.43188	43.52817	572.48676	452.42264	
1779	17.780	-273.03241	-11.83270	-341.36017	131.36609	110.79941	-353.60178	-198.98737	150.66481	296.14609	143.50177	36.88739	265.60440	-197.02347	1188.91333	-504.90848	-164.02393	556.66241	-485.59360	-4.51217	557.97986	-494.17795	-112.51688	577.83154	459.01385	42.54003	573.21918	451.88199	
1780	17.790	-272.81363	-12.03216	-341.21091	128.16367	119.15506	-355.27841	-202.05986	159.36827	294.39322	143.88144	37.04311	265.56186	-198.08531	1188.45239	-506.55289	-165.34598	555.63721	-485.94162	-5.17770	556.70795	-494.58997	-113.52639	578.81531	458.56415	41.70357	574.27594	451.22787	
1781	17.800	-272.45520	-12.62237	-341.22092	125.13901	124.50935	-356.13562	-205.58784	165.60510	292.85489	144.24512	37.18956	265.44293	-198.49545	1187.13416	-507.89291	-165.79063	554.43951	-485.97662	-5.75313	555.72223	-495.07608	-114.41734	579.79578	458.31110	41.01286	575.03271	450.97192	
1782	17.810	-272.09891	-13.13556	-341.14319	122.50549	127.44054	-356.80875	-209.86742	168.90123	291.44177	145.00960	37.61398	265.34451	-198.98889	1185.64063	-509.76318	-166.83691	553.52844	-485.98541	-7.30075	554.41553	-494.93713	-114.59104	580.38306	458.08279	38.62392	575.73724	450.55362	
1783	17.820	-271.67499	-13.55631	-341.25980	119.22756	127.51810	-357.14063	-215.50853	169.82538	290.80634	145.31345	37.83220	265.12930	-198.93814	1183.87183	-510.76654	-167.60530	552.08984	-485.85089	-8.26040	553.47504	-495.23035	-115.11793	580.81604	458.07205	39.32088	576.00671	450.54761	
